<svg width="301" height="164" viewBox="0 0 301 164" fill="none" xmlns="http://www.w3.org/2000/svg">
<g clip-path="url(#clip0_64_40)">
<path d="M250.16 117.036H238.16V47.0362H272.36C285.66 47.0362 294.86 55.1362 294.86 66.8362C294.86 75.4362 288.76 82.5362 279.46 84.9362C284.06 85.8362 287.36 88.6362 289.06 92.9362L298.06 117.036H285.26L277.16 94.9362C276.16 92.1362 273.86 90.6362 270.66 90.6362H250.16V117.036ZM250.16 57.8362V80.0362H271.76C279.16 80.0362 282.96 74.7362 282.96 68.6362C282.96 62.2362 278.56 57.8362 271.76 57.8362H250.16Z" fill="black"/>
<path d="M207.707 117.036H195.707V57.8362H172.307V47.0362H231.007V57.8362H207.707V117.036Z" fill="black"/>
<path d="M136.353 117.036H111.153V47.0362H136.353C157.153 47.0362 171.653 61.2362 171.653 81.6362C171.653 102.536 157.153 117.036 136.353 117.036ZM123.153 57.8362V106.236H137.153C150.153 106.236 159.253 96.1362 159.253 81.6362C159.253 67.9362 150.153 57.8362 137.153 57.8362H123.153Z" fill="black"/>
<path d="M36.9822 64.1692V127.196C36.9822 133.175 43.2536 137.079 48.6183 134.441L49.8994 133.811V155.453C49.8994 161.431 43.6279 165.336 38.2632 162.697L5.16295 146.418C2.40175 145.06 0.652588 142.251 0.652588 139.174V87.0625C0.652588 83.9854 2.40175 81.1759 5.16295 79.818L36.9822 64.1692Z" fill="black"/>
<path d="M81.7186 17.654C84.4798 19.012 86.229 21.8215 86.229 24.8986V110.918C86.229 113.995 84.4798 116.804 81.7186 118.162L49.8994 133.811V70.7837C49.8994 64.8054 43.6279 60.9008 38.2633 63.5392L36.9822 64.1692V8.61971C36.9822 2.64139 43.2537 -1.26316 48.6183 1.37519L81.7186 17.654Z" fill="black"/>
<path d="M49.8994 133.811V70.7837C49.8994 64.8054 43.6279 60.9008 38.2633 63.5392L36.9822 64.1692V127.196C36.9822 133.175 43.2537 137.079 48.6183 134.441L49.8994 133.811Z" fill="white"/>
</g>
<defs>
<clipPath id="clip0_64_40">
<rect width="300.2" height="163" fill="white" transform="translate(0.652588 0.53624)"/>
</clipPath>
</defs>
</svg>
