<?xml version="1.0" encoding="UTF-8"?>
<svg xmlns="http://www.w3.org/2000/svg" xmlns:xlink="http://www.w3.org/1999/xlink" width="32px" height="32px" viewBox="0 0 32 32" version="1.1">
<g id="surface1">
<path style=" stroke:none;fill-rule:nonzero;fill:rgb(21.176471%,36.470589%,78.039217%);fill-opacity:1;" d="M 32 4.363281 L 32 27.636719 C 32 28.792969 31.539062 29.902344 30.722656 30.722656 C 29.902344 31.539062 28.792969 32 27.636719 32 L 4.363281 32 C 3.207031 32 2.097656 31.539062 1.277344 30.722656 C 0.460938 29.902344 0 28.792969 0 27.636719 L 0 4.363281 C 0 3.207031 0.460938 2.097656 1.277344 1.277344 C 2.097656 0.460938 3.207031 0 4.363281 0 L 27.636719 0 C 28.792969 0 29.902344 0.460938 30.722656 1.277344 C 31.539062 2.097656 32 3.207031 32 4.363281 Z M 32 4.363281 "/>
<path style=" stroke:none;fill-rule:nonzero;fill:rgb(100%,100%,100%);fill-opacity:1;" d="M 17.078125 6.082031 L 17.078125 7.121094 L 17.316406 7.140625 C 17.816406 7.183594 18.554688 7.289062 19.097656 7.394531 C 20.050781 7.585938 20.984375 7.871094 21.882812 8.238281 C 22.3125 8.410156 22.722656 8.621094 23.109375 8.878906 L 23.253906 8.96875 L 23.246094 13.441406 C 23.242188 18.574219 23.261719 17.996094 23.058594 18.511719 C 22.6875 19.433594 22.164062 20.285156 21.515625 21.039062 C 20.796875 21.847656 19.976562 22.554688 19.066406 23.140625 C 18.476562 23.53125 17.859375 23.878906 17.222656 24.179688 C 16.902344 24.347656 16.566406 24.492188 16.222656 24.609375 L 15.992188 24.691406 L 15.859375 24.644531 C 15.589844 24.558594 15.332031 24.453125 15.078125 24.332031 C 13.703125 23.722656 12.429688 22.898438 11.308594 21.890625 C 10.273438 20.960938 9.460938 19.808594 8.933594 18.519531 C 8.769531 18.152344 8.703125 17.75 8.738281 17.347656 L 8.738281 17.085938 L 6.535156 17.085938 L 6.539062 17.472656 C 6.519531 17.824219 6.5625 18.175781 6.664062 18.511719 C 7.070312 19.785156 7.707031 20.972656 8.546875 22.011719 C 9.539062 23.21875 10.714844 24.265625 12.023438 25.121094 C 12.941406 25.671875 13.894531 26.164062 14.875 26.589844 C 15.242188 26.746094 15.621094 26.867188 16.007812 26.964844 C 16.414062 26.855469 16.816406 26.71875 17.207031 26.554688 C 17.503906 26.4375 18.546875 25.925781 18.855469 25.753906 C 18.890625 25.734375 19.066406 25.640625 19.238281 25.546875 C 19.65625 25.332031 20.054688 25.082031 20.433594 24.804688 C 21.167969 24.289062 21.859375 23.707031 22.492188 23.070312 C 23.417969 22.175781 24.179688 21.125 24.742188 19.964844 C 25.027344 19.417969 25.246094 18.839844 25.402344 18.238281 C 25.472656 17.882812 25.46875 17.96875 25.46875 12.933594 L 25.46875 8.140625 L 25.269531 7.921875 C 24.949219 7.566406 24.578125 7.257812 24.171875 7.007812 C 23.632812 6.664062 23.066406 6.371094 22.476562 6.132812 C 22.175781 6.015625 21.507812 5.789062 21.132812 5.675781 C 20.078125 5.394531 19.007812 5.203125 17.921875 5.097656 C 17.742188 5.082031 17.171875 5.046875 17.097656 5.046875 C 17.066406 5.390625 17.058594 5.734375 17.078125 6.082031 Z M 17.078125 6.082031 "/>
<path style=" stroke:none;fill-rule:nonzero;fill:rgb(100%,100%,100%);fill-opacity:1;" d="M 14.300781 5.074219 C 13.734375 5.117188 13.382812 5.160156 12.847656 5.246094 C 12.40625 5.320312 11.707031 5.457031 11.398438 5.53125 C 10.664062 5.710938 9.941406 5.949219 9.246094 6.242188 C 9.089844 6.328125 8.925781 6.390625 8.753906 6.429688 C 8.75 6.425781 8.742188 6.261719 8.738281 6.0625 L 8.734375 5.707031 L 6.546875 5.707031 L 6.546875 8.054688 C 6.546875 9.347656 6.542969 11.390625 6.535156 12.59375 L 6.53125 14.917969 L 8.734375 14.917969 L 8.742188 13.328125 C 8.746094 12.527344 8.753906 11.222656 8.753906 10.425781 L 8.753906 8.980469 L 9.011719 8.816406 C 9.429688 8.535156 9.878906 8.3125 10.355469 8.148438 C 10.835938 7.964844 11.316406 7.800781 11.644531 7.703125 C 12.585938 7.441406 13.546875 7.261719 14.519531 7.167969 C 14.679688 7.152344 14.828125 7.136719 14.859375 7.132812 L 14.914062 7.125 L 14.914062 5.054688 L 14.695312 5.058594 C 14.570312 5.058594 14.394531 5.066406 14.300781 5.074219 Z M 14.300781 5.074219 "/>
</g>
</svg>
